<?xml version="1.0" encoding="iso-8859-1"?>
<!-- Generator: Adobe Illustrator 19.0.0, SVG Export Plug-In . SVG Version: 6.00 Build 0)  -->
<svg version="1.1" id="Capa_1" xmlns="http://www.w3.org/2000/svg" xmlns:xlink="http://www.w3.org/1999/xlink" x="0px" y="0px"
	 viewBox="0 0 432.065 432.065" style="enable-background:new 0 0 432.065 432.065;" xml:space="preserve">
<path style="fill:#D4E1F4;" d="M183.902,227.004c5.225-5.225,13.061-5.747,19.331-2.09l56.947,35.527l46.498-48.588
	c5.747-6.269,15.673-6.269,21.943-0.522l72.62,65.829V80.196H31.347v271.673h23.51L183.902,227.004z"/>
<path style="fill:#00BBD3;" d="M405.943,48.849H26.122C11.494,48.849,0,60.343,0,74.971v282.122
	c0,14.629,11.494,26.122,26.122,26.122h379.82c14.629,0,26.122-11.494,26.122-26.122V74.971
	C432.065,60.343,420.571,48.849,405.943,48.849z M31.347,80.196h369.371v196.963v74.71H172.931l86.727-91.429l-56.947-35.527
	c-6.269-3.657-14.106-3.135-19.331,2.09L54.857,351.869h-23.51C31.347,351.869,31.347,80.196,31.347,80.196z"/>
<g>
	<path style="fill:#4DCFE0;" d="M113.371,234.318c33.959,0,61.127-27.167,61.127-61.127s-27.167-61.127-61.127-61.127
		s-61.127,27.167-61.127,61.127C52.245,207.151,79.412,234.318,113.371,234.318z"/>
	<path style="fill:#4DCFE0;" d="M306.155,211.853l-46.498,48.588l-86.727,91.429h227.788v-74.71l-72.62-65.829
		C321.829,205.584,312.424,205.584,306.155,211.853z"/>
</g>
<g>
</g>
<g>
</g>
<g>
</g>
<g>
</g>
<g>
</g>
<g>
</g>
<g>
</g>
<g>
</g>
<g>
</g>
<g>
</g>
<g>
</g>
<g>
</g>
<g>
</g>
<g>
</g>
<g>
</g>
</svg>
